<svg xmlns="http://www.w3.org/2000/svg" xmlns:xlink="http://www.w3.org/1999/xlink" version="1.1" x="0px" y="0px" viewBox="0 0 100 125" style="enable-background:new 0 0 100 100;" xml:space="preserve"><g><path d="M63.605,17.212h-27.21c-1.066,0-1.93,0.864-1.93,1.93v27.211c0,1.065,0.863,1.93,1.93,1.93h27.21   c1.066,0,1.93-0.864,1.93-1.93V19.142C65.535,18.076,64.672,17.212,63.605,17.212z M39.931,36.855L50,26.786l10.07,10.07H39.931z    M63.605,51.718H36.395c-1.066,0-1.929,0.864-1.929,1.93v27.211c0,1.065,0.863,1.929,1.929,1.929h27.211   c1.066,0,1.93-0.863,1.93-1.929V53.647C65.535,52.582,64.672,51.718,63.605,51.718z M50,73.882l-10.069-10.07h20.14L50,73.882z    M29.141,51.718H1.93c-1.065,0-1.93,0.864-1.93,1.93v27.21c0,1.066,0.864,1.931,1.93,1.931h27.211c1.065,0,1.929-0.864,1.929-1.931   v-27.21C31.07,52.582,30.206,51.718,29.141,51.718z M19.117,77.322L9.047,67.253l10.07-10.069V77.322z M98.07,51.718H70.859   c-1.065,0-1.93,0.864-1.93,1.93v27.211c0,1.065,0.864,1.93,1.93,1.93H98.07c1.066,0,1.93-0.864,1.93-1.93V53.647   C100,52.582,99.137,51.718,98.07,51.718z M81.047,77.322V57.184l10.069,10.069L81.047,77.322z"/></g></svg>