<svg xmlns="http://www.w3.org/2000/svg" xmlns:xlink="http://www.w3.org/1999/xlink" xml:space="preserve" version="1.1" style="shape-rendering:geometricPrecision;text-rendering:geometricPrecision;image-rendering:optimizeQuality;" viewBox="0 0 955 860" x="0px" y="0px" fill-rule="evenodd" clip-rule="evenodd"><defs><style type="text/css">
   
    .fil0 {fill:black}
   
  </style></defs><g><path class="fil0" d="M234 411l0 221c0,70 -110,75 -126,15 -106,-20 -134,-132 -84,-200 -46,-76 16,-171 114,-172 4,-25 12,-50 23,-73 -11,-14 -11,-33 -1,-48 148,-205 486,-205 634,0 11,15 10,34 0,48 11,23 19,48 23,73 98,1 160,96 114,172 50,68 22,180 -84,200 -16,60 -127,55 -127,-15l0 -221c0,-29 20,-47 44,-54 11,-46 6,-93 -14,-135 -15,-1 -30,-8 -38,-20 -110,-152 -360,-152 -469,0 -8,12 -23,19 -38,20 -20,42 -26,89 -14,135 24,7 43,25 43,54zm25 129l76 0 0 46 -76 0 0 -46zm361 0l76 0 0 46 -76 0 0 -46zm0 -61l76 0 0 46 -76 0 0 -46zm-361 -120l76 0 0 46 -76 0 0 -46zm0 60l76 0 0 46 -76 0 0 -46zm271 -60l76 0 0 46 -76 0 0 -46zm0 60l76 0 0 46 -76 0 0 -46zm0 60l76 0 0 46 -76 0 0 -46zm0 61l76 0 0 46 -76 0 0 -46zm-91 0l76 0 0 46 -76 0 0 -46zm-180 -61l76 0 0 46 -76 0 0 -46zm90 -60l76 0 0 46 -76 0 0 -46zm0 60l76 0 0 46 -76 0 0 -46zm0 61l76 0 0 46 -76 0 0 -46zm561 -115c-17,-14 -38,-24 -63,-29 -5,-17 -18,-29 -33,-36 4,-19 6,-39 5,-58 70,2 116,66 91,123zm-865 0c17,-14 38,-24 63,-29 5,-17 17,-29 33,-36 -4,-19 -6,-39 -5,-58 -70,2 -116,66 -91,123z"/></g></svg>