<svg xmlns="http://www.w3.org/2000/svg" xmlns:xlink="http://www.w3.org/1999/xlink" version="1.1" x="0px" y="0px" viewBox="0 0 90 112.5" enable-background="new 0 0 90 90" xml:space="preserve"><g><path d="M23.267,12.863c4.209,3.15,4.651,3.15,4.914,3.15c0.428,0,0.777-0.35,0.777-0.779v-3.125h29.515   c0.471,0,0.854-0.383,0.854-0.854c0-0.473-0.383-0.855-0.854-0.855H28.958V7.275c0-0.43-0.349-0.777-0.777-0.777   c-0.263,0-0.705,0-4.935,3.166c-0.508,0.41-0.8,0.988-0.8,1.592S22.739,12.439,23.267,12.863z M24.199,10.894   c1.092-0.818,2.349-1.719,3.204-2.291v5.305c-0.854-0.572-2.104-1.469-3.183-2.275c-0.142-0.109-0.218-0.244-0.218-0.377   C24.002,11.125,24.078,10.988,24.199,10.894z"/><path d="M77.019,15.341c-4.211-3.15-4.652-3.15-4.914-3.15c-0.43,0-0.779,0.35-0.779,0.779v3.125H41.812   c-0.472,0-0.854,0.383-0.854,0.854c0,0.473,0.382,0.855,0.854,0.855h29.514v3.125c0,0.43,0.35,0.777,0.779,0.777   c0.262,0,0.703,0,4.934-3.166c0.508-0.408,0.8-0.988,0.8-1.594C77.838,16.345,77.546,15.765,77.019,15.341z M76.087,17.31   c-1.093,0.818-2.35,1.719-3.205,2.291v-5.305c0.854,0.57,2.105,1.467,3.184,2.275c0.142,0.111,0.218,0.246,0.218,0.375   C76.283,17.08,76.207,17.216,76.087,17.31z"/><path d="M52.475,42.046c-0.068-0.129-0.188-0.232-0.343-0.281c-0.008-0.002-0.016,0-0.021-0.002   c-0.638-3.756-3.607-4.014-4.543-3.998c-0.158,0.002-0.604,0.02-1.037,0.119c-0.299-1.75-1.924-2.789-3.37-3.164   c-1.359-0.354-2.229,0.031-3.151,0.438c-0.369,0.162-0.757,0.328-1.193,0.457c-0.009-0.072-0.037-0.139-0.075-0.199   c0.062-1.184,0.15-2.375,0.24-3.537c0.059-0.748,0.117-1.496,0.166-2.244l0.504-7.502c0.088-1.361,0.067-2.463-0.063-3.469   c-0.281-2.131-1.021-3.445-2.267-4.025c-1.173-0.541-2.711-0.561-3.514,0.615c-0.334,0.496-0.486,1.059-0.618,1.559   c-0.588,2.223-1.679,6.977-2.733,11.578c-1.044,4.549-2.031,8.844-2.512,10.631c-0.199,0.738-0.622,2.469-1.063,4.279l-1.157,4.572   c-0.005-0.008-0.01-0.014-0.015-0.02c-3.196-4.435-2.048-6.505-4.889-10.519c-0.754-1.066-2.349-2.861-4.554-2.9   c-1.574-0.025-2.877,0.586-3.576,1.686c-0.696,1.09-0.707,2.51-0.028,3.896c0.255,0.521,0.559,1.012,0.853,1.486   c0.307,0.498,0.594,0.963,0.833,1.461c1.864,3.904,1.954,13.359,2.498,15.996c0.243,1.174,0.35,2.404,0.454,3.594   c0.075,0.857,0.152,1.742,0.281,2.615c0.471,3.229,2.205,7.502,5.537,8.924c0.258,0.109,0.558-0.01,0.667-0.268   c0.111-0.26-0.009-0.561-0.268-0.67c-2.757-1.176-4.46-4.932-4.93-8.133c-0.123-0.846-0.2-1.713-0.274-2.559   c-0.106-1.217-0.216-2.477-0.471-3.709c-0.589-2.854-0.488-11.857-2.576-16.23c-0.263-0.547-0.578-1.059-0.885-1.555   c-0.295-0.475-0.571-0.924-0.803-1.4c-0.519-1.061-0.528-2.117-0.027-2.906c0.502-0.789,1.486-1.23,2.699-1.209   c1.757,0.031,3.097,1.559,3.739,2.469c2.737,3.865,1.953,6.445,4.894,10.525c0.239,0.332,0.437,0.674,0.583,1.016   c0.086,0.197,0.29,0.32,0.504,0.303c0.217-0.014,0.399-0.166,0.454-0.373c0.228-0.844,0.748-2.988,1.254-5.058   c0.068-0.281,0.138-0.564,0.206-0.846l0.931-3.676c0.011-0.047,0.011-0.092,0.01-0.137c0.038-0.148,0.072-0.281,0.102-0.389   c0.488-1.807,1.477-6.109,2.522-10.67c1.053-4.592,2.142-9.338,2.725-11.545c0.118-0.439,0.237-0.896,0.476-1.244   c0.462-0.682,1.486-0.613,2.244-0.264c0.902,0.418,1.453,1.477,1.685,3.232c0.122,0.938,0.142,1.977,0.058,3.27l-0.505,7.5   c-0.05,0.744-0.107,1.488-0.167,2.234c-0.115,1.502-0.236,3.055-0.289,4.588c-0.001,0.043,0.019,0.078,0.028,0.119l-0.777,6.639   c-0.031,0.279,0.167,0.531,0.446,0.563c0.279,0.033,0.534-0.166,0.565-0.445l0.766-6.539c0.065-0.027,0.132-0.053,0.195-0.07   c0.593-0.154,1.085-0.373,1.521-0.563c0.852-0.377,1.467-0.652,2.485-0.387c1.275,0.332,2.73,1.289,2.65,2.896l-1.271,7.425   c-0.047,0.277,0.141,0.539,0.416,0.588c0.277,0.049,0.541-0.139,0.587-0.416l1.243-7.253c0.404-0.139,1.658-0.359,2.785,0.199   c1.085,0.545,1.712,1.66,1.865,3.32c0.008,0.086,0.042,0.162,0.088,0.229l-1.166,4.019c-0.078,0.275,0.059,0.563,0.314,0.676   c0.023,0.012,0.049,0.021,0.075,0.029c0.302,0.088,0.618-0.088,0.706-0.389l1.152-3.974c0.861,0.203,1.571,0.578,1.961,1.068   c0.316,0.398,0.439,0.861,0.371,1.416c-0.143,1.199-0.507,2.551-0.848,3.715c-0.271,0.926-0.59,1.869-0.949,2.803   c-0.322,0.834-1.1,3.326-2.082,6.482c-1.844,5.906-4.625,14.834-5.551,16.266c-1.162,1.801-2.323,2.42-3.555,3.076   c-1.554,0.83-3.167,1.689-4.513,4.918c-0.109,0.258,0.013,0.557,0.271,0.664c0.262,0.109,0.56-0.012,0.667-0.273   c1.208-2.893,2.528-3.594,4.054-4.41c1.231-0.654,2.627-1.398,3.931-3.426c0.924-1.43,3.114-8.324,5.666-16.512   c0.939-3.014,1.754-5.617,2.061-6.418c0.369-0.961,0.699-1.934,0.977-2.887c0.352-1.201,0.731-2.605,0.883-3.877   c0.027-0.232,0.032-0.455,0.014-0.667c-0.047-0.557-0.247-1.059-0.6-1.502C54.556,42.794,53.61,42.292,52.475,42.046z"/></g></svg>