<svg xmlns="http://www.w3.org/2000/svg" xmlns:xlink="http://www.w3.org/1999/xlink" version="1.1" x="0px" y="0px" viewBox="0 0 100 125" enable-background="new 0 0 100 100" xml:space="preserve"><path d="M89.367,33.531c-1.547-0.101-3.002,0.326-4.203,1.114C80.232,19.209,66.508,8.07,50.385,8.07  c-16.166,0-29.917,11.195-34.815,26.691c-1.235-0.865-2.761-1.336-4.383-1.23c-3.791,0.245-6.665,3.517-6.42,7.307L6.71,70.975  c0.245,3.791,3.517,6.664,7.307,6.42c3.791-0.244,6.665-3.516,6.42-7.305l-1.848-28.631c2.568-16.383,15.845-28.905,31.797-28.905  c15.645,0,28.721,12.045,31.641,27.965l-1.91,29.57c-0.244,3.789,2.631,7.062,6.42,7.306c3.791,0.243,7.062-2.629,7.309-6.42  l1.941-30.138C96.031,37.048,93.158,33.775,89.367,33.531z"/><path d="M50.277,25.08c-8.41,0-15.252,6.842-15.252,15.252c0,5.107,2.429,12.327,7.22,21.46c1.866,3.557,3.711,6.661,4.931,8.639  c2.432,3.943,2.443,3.943,3.06,3.969l0.029,0.001h0.029c0.646-0.011,0.646-0.011,3.089-3.998c1.219-1.987,3.062-5.107,4.931-8.681  c4.788-9.162,7.217-16.359,7.217-21.389C65.529,31.922,58.688,25.08,50.277,25.08z M60.676,40.308c0,2.757-1.074,5.35-3.023,7.3  c-1.95,1.95-4.543,3.024-7.301,3.024c-5.693,0-10.324-4.632-10.324-10.325s4.631-10.324,10.324-10.324  C56.044,29.984,60.676,34.616,60.676,40.308z"/></svg>